M48
;Layer_Color=9474304
;FILE_FORMAT=2:4
INCH,TZ
;TYPE=PLATED
T1F00S00C0.0280
T2F00S00C0.0394
T3F00S00C0.0591
;TYPE=NON_PLATED
T4F00S00C0.1260
%
T01
X9724Y3780
X12244Y6654
T02
X13543Y10346
Y11346
Y12346
Y13346
T03
X1221Y2205
Y6142
X1220Y10630
Y14567
X5945
X4961Y15551
Y12598
X5945Y10630
X4961Y9646
X4961Y7126
X5946Y6142
X4961Y4173
X5946Y2205
X4961Y1220
X4961Y18071
X5945Y19055
X4961Y21024
X5945Y22992
X4961Y23976
X1220Y22992
Y19055
T04
X13976Y1772
Y23425
M30
