G04*
G04 #@! TF.GenerationSoftware,Altium Limited,Altium Designer,21.4.1 (30)*
G04*
G04 Layer_Physical_Order=1*
G04 Layer_Color=255*
%FSLAX25Y25*%
%MOIN*%
G70*
G04*
G04 #@! TF.SameCoordinates,A48B96B0-5CB6-46A1-959F-C16CD1BF0AD3*
G04*
G04*
G04 #@! TF.FilePolarity,Positive*
G04*
G01*
G75*
%ADD11C,0.01968*%
%ADD26R,0.03150X0.02362*%
%ADD27R,0.05118X0.02756*%
%ADD28R,0.02362X0.03150*%
%ADD29R,0.02756X0.05118*%
%ADD30R,0.03150X0.03150*%
%ADD31R,0.07008X0.05984*%
%ADD32R,0.03150X0.03150*%
%ADD33R,0.03150X0.03543*%
%ADD34C,0.01181*%
%ADD35C,0.12598*%
%ADD36R,0.06299X0.06299*%
%ADD37C,0.06299*%
%ADD38C,0.07874*%
%ADD39C,0.05000*%
G36*
X155512Y1969D02*
X78740D01*
Y20425D01*
X97638D01*
X98258Y20549D01*
X98785Y20900D01*
X98931Y21047D01*
X101000D01*
Y24400D01*
X101462Y24591D01*
X102150Y23903D01*
Y21047D01*
X106512D01*
Y26197D01*
X106943Y26362D01*
X107693D01*
Y28299D01*
X110221D01*
Y27543D01*
X115370D01*
Y33087D01*
X114417D01*
Y35358D01*
X116945D01*
Y41388D01*
X117407Y41579D01*
X117937Y41049D01*
Y35358D01*
X120229D01*
Y33087D01*
X119276D01*
Y27543D01*
X124425D01*
Y33087D01*
X123472D01*
Y35358D01*
X126945D01*
Y43343D01*
X120230D01*
X106127Y57446D01*
X105601Y57797D01*
X104980Y57921D01*
X102181D01*
Y58480D01*
X97031D01*
Y55999D01*
X96570Y55808D01*
X95341Y57037D01*
X94815Y57388D01*
X94194Y57512D01*
X78740D01*
Y59992D01*
X97031D01*
Y59630D01*
X102181D01*
Y63992D01*
X97031D01*
Y63236D01*
X78740D01*
Y94441D01*
X97425D01*
Y93488D01*
X96994Y93323D01*
X96244D01*
Y86205D01*
Y79118D01*
X101000D01*
Y86205D01*
Y90201D01*
X101272D01*
X101892Y90325D01*
X102418Y90676D01*
X103262Y91520D01*
X103724Y91329D01*
Y90264D01*
X108480D01*
Y93323D01*
X107731D01*
X107299Y93488D01*
Y98638D01*
X102937D01*
Y95782D01*
X102249Y95094D01*
X101787Y95285D01*
Y98638D01*
X97425D01*
Y97685D01*
X78740D01*
Y128943D01*
X79202Y129134D01*
X96991Y111345D01*
X97031Y111318D01*
Y108843D01*
X96600Y108677D01*
X96047D01*
Y101559D01*
X100803D01*
Y106384D01*
X101050Y106630D01*
X101953D01*
X102573Y106754D01*
X103028Y107057D01*
X103528Y106914D01*
Y101559D01*
X108283D01*
Y101843D01*
X131578D01*
X132113Y100917D01*
X132885Y100144D01*
X133122Y100007D01*
Y86236D01*
X131677D01*
Y81412D01*
X131294Y81029D01*
X130943Y80502D01*
X130819Y79882D01*
Y78815D01*
X129327D01*
X128953Y79118D01*
X128953Y79315D01*
Y82177D01*
X126575D01*
X124197D01*
Y79315D01*
X124197Y79118D01*
X123822Y78815D01*
X122913D01*
X122457Y78921D01*
Y84071D01*
X117307D01*
Y79149D01*
X116926Y78860D01*
X116551Y79135D01*
Y80996D01*
X113976D01*
X111402D01*
X111402Y78921D01*
X110946Y78815D01*
X108855D01*
X108480Y79118D01*
X108480Y79315D01*
Y82177D01*
X106602D01*
Y79118D01*
X107563D01*
X107937Y78815D01*
X107937Y78618D01*
Y75323D01*
X112441D01*
X116945D01*
Y78589D01*
X117275Y78892D01*
X117359Y78912D01*
X117859Y78859D01*
Y75785D01*
X117937Y75392D01*
Y70831D01*
X120418D01*
Y69409D01*
X120292Y69336D01*
X119640Y68685D01*
X119179Y67886D01*
X118941Y66996D01*
Y66075D01*
X119179Y65184D01*
X119640Y64386D01*
X120292Y63735D01*
X121090Y63274D01*
X121980Y63035D01*
X122902D01*
X123792Y63274D01*
X124590Y63735D01*
X125242Y64386D01*
X125702Y65184D01*
X125941Y66075D01*
Y66996D01*
X125702Y67886D01*
X125242Y68685D01*
X124590Y69336D01*
X124464Y69409D01*
Y70831D01*
X126945D01*
Y78618D01*
X126945Y78815D01*
X127319Y79118D01*
X127563D01*
X127937Y78815D01*
X127937Y78618D01*
Y70831D01*
X131458D01*
X131820Y70588D01*
X132441Y70465D01*
X133062Y70588D01*
X133424Y70831D01*
X136945D01*
Y78815D01*
X136808D01*
X136433Y79118D01*
Y86236D01*
X136366D01*
Y99418D01*
X137035Y99598D01*
X137981Y100144D01*
X138754Y100917D01*
X139300Y101863D01*
X139583Y102918D01*
Y104011D01*
X139300Y105066D01*
X138754Y106012D01*
X137981Y106785D01*
X137035Y107331D01*
X135979Y107614D01*
X134887D01*
X133831Y107331D01*
X132885Y106785D01*
X132113Y106012D01*
X131578Y105086D01*
X108283D01*
Y108677D01*
X107337D01*
X106905Y108843D01*
Y113992D01*
X102543D01*
Y111136D01*
X101856Y110448D01*
X101394Y110640D01*
Y113992D01*
X99143D01*
X98879Y114045D01*
X78740Y134183D01*
Y168313D01*
X79202Y168505D01*
X95229Y152478D01*
Y135252D01*
X94276D01*
Y130890D01*
X99425D01*
Y131246D01*
X99591Y131677D01*
X99925Y131677D01*
X102650D01*
Y134055D01*
Y136433D01*
X99590D01*
Y135684D01*
X99425Y135252D01*
X99090Y135252D01*
X98472D01*
Y153150D01*
X98349Y153770D01*
X97997Y154296D01*
X78740Y173553D01*
Y207683D01*
X79202Y207874D01*
X101922Y185155D01*
Y150606D01*
X100969D01*
Y146244D01*
X103534D01*
X103725Y145782D01*
X103381Y145438D01*
X103151Y145095D01*
X100969D01*
Y140732D01*
X106118D01*
X106283Y140301D01*
Y139748D01*
X113401D01*
Y139748D01*
X113729Y139883D01*
X122332Y131280D01*
Y124944D01*
X122456Y124323D01*
X122807Y123797D01*
X131560Y115044D01*
X131283Y114011D01*
Y112918D01*
X131566Y111863D01*
X132113Y110917D01*
X132885Y110144D01*
X133831Y109598D01*
X134887Y109315D01*
X135979D01*
X137035Y109598D01*
X137981Y110144D01*
X138754Y110917D01*
X139300Y111863D01*
X139583Y112918D01*
Y114011D01*
X139300Y115066D01*
X138754Y116013D01*
X137981Y116785D01*
X137035Y117331D01*
X135979Y117614D01*
X134887D01*
X133854Y117337D01*
X125576Y125616D01*
Y131952D01*
X125452Y132572D01*
X125101Y133098D01*
X114926Y143273D01*
X114400Y143624D01*
X113779Y143748D01*
X113402D01*
Y144504D01*
X107687D01*
X107495Y144966D01*
X109021Y146491D01*
X109372Y147017D01*
X109414Y147228D01*
X113402D01*
Y151984D01*
X106283D01*
Y151038D01*
X106118Y150606D01*
X105165D01*
Y185827D01*
X105042Y186447D01*
X104690Y186974D01*
X78740Y212923D01*
Y250000D01*
X155512D01*
Y1969D01*
D02*
G37*
G36*
X94951Y52840D02*
X94759Y52378D01*
X92307D01*
Y49522D01*
X86139Y43354D01*
X78740D01*
Y54268D01*
X93523D01*
X94951Y52840D01*
D02*
G37*
G36*
X115182Y43804D02*
X114990Y43343D01*
X113838D01*
X113416Y43624D01*
X112795Y43748D01*
X112519Y43693D01*
X112441Y43708D01*
X111820Y43585D01*
X111458Y43343D01*
X107937D01*
Y35358D01*
X111174D01*
Y33087D01*
X110221D01*
Y31543D01*
X107693D01*
Y33480D01*
X102937D01*
Y28356D01*
X102475Y28165D01*
X101631Y29009D01*
X101105Y29360D01*
X100484Y29484D01*
X100213D01*
Y33480D01*
X95457D01*
Y26362D01*
X96206D01*
X96638Y26197D01*
Y23669D01*
X78740D01*
Y40111D01*
X86811D01*
X87432Y40234D01*
X87958Y40586D01*
X91845Y44473D01*
X92307Y44282D01*
Y41323D01*
X93449D01*
Y40387D01*
X93603Y39613D01*
X93963Y39074D01*
X93744Y38256D01*
Y37334D01*
X93983Y36444D01*
X94443Y35646D01*
X95095Y34995D01*
X95893Y34534D01*
X96783Y34295D01*
X97705D01*
X98595Y34534D01*
X99393Y34995D01*
X100045Y35646D01*
X100506Y36444D01*
X100744Y37334D01*
Y38256D01*
X100506Y39146D01*
X100045Y39944D01*
X99476Y40513D01*
X100286Y41323D01*
X102575D01*
Y46472D01*
X94652D01*
X94442Y46949D01*
X94666Y47228D01*
X102575D01*
Y52378D01*
X99719D01*
X99572Y52525D01*
X99546Y52657D01*
X99194Y53184D01*
X98721Y53656D01*
X98913Y54118D01*
X102181D01*
Y54677D01*
X104309D01*
X115182Y43804D01*
D02*
G37*
%LPC*%
G36*
X140483Y241551D02*
X139045D01*
X137635Y241271D01*
X136306Y240720D01*
X135111Y239922D01*
X134094Y238905D01*
X133295Y237709D01*
X132745Y236381D01*
X132465Y234971D01*
Y233533D01*
X132745Y232123D01*
X133295Y230795D01*
X134094Y229599D01*
X135111Y228582D01*
X136306Y227783D01*
X137635Y227233D01*
X139045Y226953D01*
X140483D01*
X141893Y227233D01*
X143221Y227783D01*
X144417Y228582D01*
X145433Y229599D01*
X146232Y230795D01*
X146783Y232123D01*
X147063Y233533D01*
Y234971D01*
X146783Y236381D01*
X146232Y237709D01*
X145433Y238905D01*
X144417Y239922D01*
X143221Y240720D01*
X141893Y241271D01*
X140483Y241551D01*
D02*
G37*
G36*
X113795Y136433D02*
X110736D01*
Y134555D01*
X113795D01*
Y136433D01*
D02*
G37*
G36*
X139583Y137614D02*
X135933D01*
Y133965D01*
X139583D01*
Y137614D01*
D02*
G37*
G36*
X134933D02*
X131283D01*
Y133965D01*
X134933D01*
Y137614D01*
D02*
G37*
G36*
X113795Y133555D02*
X110736D01*
Y131677D01*
X113795D01*
Y133555D01*
D02*
G37*
G36*
X109736Y136433D02*
X103650D01*
Y134055D01*
Y131677D01*
X109736D01*
Y134055D01*
Y136433D01*
D02*
G37*
G36*
X139583Y132965D02*
X135933D01*
Y129315D01*
X139583D01*
Y132965D01*
D02*
G37*
G36*
X134933D02*
X131283D01*
Y129315D01*
X134933D01*
Y132965D01*
D02*
G37*
G36*
X99425Y129740D02*
X94276D01*
Y125378D01*
X97284D01*
X97441Y125347D01*
X97794D01*
X98198Y125076D01*
X98819Y124953D01*
X99590D01*
Y124197D01*
X113795D01*
Y128953D01*
X99591D01*
X99425Y129384D01*
Y129740D01*
D02*
G37*
G36*
X135979Y127614D02*
X134887D01*
X133831Y127331D01*
X132885Y126785D01*
X132113Y126013D01*
X131566Y125066D01*
X131283Y124011D01*
Y122918D01*
X131566Y121863D01*
X132113Y120917D01*
X132885Y120144D01*
X133831Y119598D01*
X134887Y119315D01*
X135979D01*
X137035Y119598D01*
X137981Y120144D01*
X138754Y120917D01*
X139300Y121863D01*
X139583Y122918D01*
Y124011D01*
X139300Y125066D01*
X138754Y126013D01*
X137981Y126785D01*
X137035Y127331D01*
X135979Y127614D01*
D02*
G37*
G36*
X128953Y86236D02*
X127075D01*
Y83177D01*
X128953D01*
Y86236D01*
D02*
G37*
G36*
X108480Y89264D02*
X103724D01*
Y86205D01*
Y83177D01*
X108480D01*
Y86205D01*
Y89264D01*
D02*
G37*
G36*
X126075Y86236D02*
X124197D01*
Y83177D01*
X126075D01*
Y86236D01*
D02*
G37*
G36*
X116551Y84071D02*
X114476D01*
Y81996D01*
X116551D01*
Y84071D01*
D02*
G37*
G36*
X113476D02*
X111402D01*
Y81996D01*
X113476D01*
Y84071D01*
D02*
G37*
G36*
X105602Y82177D02*
X103724D01*
Y79118D01*
X105602D01*
Y82177D01*
D02*
G37*
G36*
X116945Y74323D02*
X112941D01*
Y70831D01*
X116945D01*
Y74323D01*
D02*
G37*
G36*
X111941D02*
X107937D01*
Y70831D01*
X111941D01*
Y74323D01*
D02*
G37*
G36*
X136945Y43343D02*
X127937D01*
Y35358D01*
X136945D01*
Y43343D01*
D02*
G37*
G36*
X140483Y25016D02*
X139045D01*
X137635Y24735D01*
X136306Y24185D01*
X135111Y23386D01*
X134094Y22369D01*
X133295Y21174D01*
X132745Y19846D01*
X132465Y18436D01*
Y16998D01*
X132745Y15587D01*
X133295Y14259D01*
X134094Y13064D01*
X135111Y12047D01*
X136306Y11248D01*
X137635Y10698D01*
X139045Y10417D01*
X140483D01*
X141893Y10698D01*
X143221Y11248D01*
X144417Y12047D01*
X145433Y13064D01*
X146232Y14259D01*
X146783Y15587D01*
X147063Y16998D01*
Y18436D01*
X146783Y19846D01*
X146232Y21174D01*
X145433Y22369D01*
X144417Y23386D01*
X143221Y24185D01*
X141893Y24735D01*
X140483Y25016D01*
D02*
G37*
%LPD*%
D11*
X122441Y73226D02*
Y74823D01*
Y66535D02*
Y73226D01*
X119882Y75785D02*
X122441Y73226D01*
X95473Y40387D02*
Y43307D01*
Y40387D02*
X97244Y38616D01*
X94882Y43898D02*
X95473Y43307D01*
X97244Y37795D02*
Y38616D01*
X97376Y37928D02*
Y41274D01*
X97244Y37795D02*
X97376Y37928D01*
Y41274D02*
X100000Y43898D01*
X119882Y75785D02*
Y81496D01*
D26*
X103543Y142913D02*
D03*
Y148425D02*
D03*
X96850Y127559D02*
D03*
Y133071D02*
D03*
X99606Y61811D02*
D03*
Y56299D02*
D03*
D27*
X109843Y149606D02*
D03*
Y142126D02*
D03*
X103150Y134055D02*
D03*
Y126575D02*
D03*
X110236Y134055D02*
D03*
Y126575D02*
D03*
D28*
X104724Y111417D02*
D03*
X99213D02*
D03*
X105118Y96063D02*
D03*
X99606D02*
D03*
X98819Y23622D02*
D03*
X104331D02*
D03*
D29*
X98425Y105118D02*
D03*
X105905D02*
D03*
X106102Y89764D02*
D03*
X98622D02*
D03*
X106102Y82677D02*
D03*
X98622D02*
D03*
X126575D02*
D03*
X134055D02*
D03*
X105315Y29921D02*
D03*
X97835D02*
D03*
D30*
X113976Y81496D02*
D03*
X119882D02*
D03*
D31*
X132441Y74823D02*
D03*
X122441D02*
D03*
X112441D02*
D03*
X132441Y39350D02*
D03*
X122441D02*
D03*
X112441D02*
D03*
D32*
X94882Y49803D02*
D03*
Y43898D02*
D03*
X100000Y49803D02*
D03*
Y43898D02*
D03*
D33*
X121850Y30315D02*
D03*
X112795D02*
D03*
D34*
X12211Y22047D02*
Y61417D01*
X112795Y30315D02*
Y42126D01*
X132441Y72087D02*
Y79488D01*
X112441Y42087D02*
X112795Y41732D01*
X99410Y61614D02*
X99606Y61811D01*
X59652Y61614D02*
X99410D01*
X59455Y61417D02*
X59652Y61614D01*
X104980Y56299D02*
X121929Y39350D01*
X99606Y56299D02*
X104980D01*
X121929Y39350D02*
X122441D01*
X121850Y30315D02*
Y38760D01*
X122441Y39350D01*
X12211Y61417D02*
X17739Y55890D01*
X94194D01*
X98047Y51756D02*
Y52037D01*
Y51756D02*
X100000Y49803D01*
X86811Y41732D02*
X94882Y49803D01*
X94194Y55890D02*
X98047Y52037D01*
X49613Y41732D02*
X86811D01*
X132441Y75217D02*
Y79882D01*
X59449Y106299D02*
X69685Y96063D01*
X99606D01*
X123954Y124944D02*
Y131952D01*
X109843Y142126D02*
X113779D01*
X123954Y131952D01*
Y124944D02*
X135433Y113465D01*
X107874Y148819D02*
X108661Y149606D01*
X107874Y147638D02*
Y148819D01*
X104528Y143504D02*
Y144291D01*
X107874Y147638D01*
X103937Y142913D02*
X104528Y143504D01*
X59449Y190551D02*
X96850Y153150D01*
Y133071D02*
Y153150D01*
X59449Y229921D02*
X103543Y185827D01*
Y148425D02*
Y185827D01*
X108661Y149606D02*
X109843D01*
X103543Y142913D02*
X103937D01*
X97441Y126969D02*
X98425D01*
X98819Y126575D02*
X103150D01*
X96850Y127559D02*
X97441Y126969D01*
X98425D02*
X98819Y126575D01*
X103150D02*
X110236D01*
X100378Y108252D02*
X101953D01*
X104724Y111024D01*
Y111417D01*
X98425Y105118D02*
Y106299D01*
X100378Y108252D01*
X98532Y112492D02*
X99213Y111811D01*
X98138Y112492D02*
X98532D01*
X99213Y111417D02*
Y111811D01*
X64961Y145669D02*
X98138Y112492D01*
X59449Y145669D02*
X64961D01*
X105905Y104342D02*
X106783Y103465D01*
X135433D01*
X105905Y104342D02*
Y105118D01*
X134744Y83366D02*
Y102776D01*
X135433Y103465D01*
X134055Y82677D02*
X134744Y83366D01*
X132441Y79882D02*
X134055Y81496D01*
Y82677D01*
X98622Y90945D02*
X99500Y91823D01*
X101272D01*
X105118Y95669D01*
X98622Y89764D02*
Y90945D01*
X105118Y95669D02*
Y96063D01*
X106102Y82677D02*
Y89764D01*
X98622Y82677D02*
Y89764D01*
X112402Y29921D02*
X112795Y30315D01*
X105315Y29921D02*
X112402D01*
X100484Y27862D02*
X104331Y24016D01*
Y23622D02*
Y24016D01*
X98713Y27862D02*
X100484D01*
X97835Y28740D02*
X98713Y27862D01*
X97835Y28740D02*
Y29921D01*
X97638Y22047D02*
X98819Y23228D01*
X59455Y22047D02*
X97638D01*
X98819Y23228D02*
Y23622D01*
D35*
X139764Y234252D02*
D03*
Y17717D02*
D03*
D36*
X135433Y133465D02*
D03*
D37*
Y123465D02*
D03*
Y113465D02*
D03*
Y103465D02*
D03*
D38*
X12205Y229921D02*
D03*
Y190551D02*
D03*
X59449Y229921D02*
D03*
Y190551D02*
D03*
X49606Y239764D02*
D03*
Y210236D02*
D03*
Y180709D02*
D03*
X12205Y145669D02*
D03*
Y106299D02*
D03*
X59449Y145669D02*
D03*
Y106299D02*
D03*
X49606Y155512D02*
D03*
Y125984D02*
D03*
Y96457D02*
D03*
X12211Y61417D02*
D03*
Y22047D02*
D03*
X59455Y61417D02*
D03*
Y22047D02*
D03*
X49613Y71260D02*
D03*
Y41732D02*
D03*
Y12205D02*
D03*
D39*
X122441Y66535D02*
D03*
X97244Y37795D02*
D03*
M02*
