G04*
G04 #@! TF.GenerationSoftware,Altium Limited,Altium Designer,21.4.1 (30)*
G04*
G04 Layer_Color=65535*
%FSLAX25Y25*%
%MOIN*%
G70*
G04*
G04 #@! TF.SameCoordinates,A48B96B0-5CB6-46A1-959F-C16CD1BF0AD3*
G04*
G04*
G04 #@! TF.FilePolarity,Positive*
G04*
G01*
G75*
%ADD10C,0.00787*%
%ADD11C,0.01968*%
%ADD12C,0.00591*%
D10*
X154331Y234252D02*
X154297Y235246D01*
X154195Y236235D01*
X154026Y237216D01*
X153790Y238182D01*
X153490Y239130D01*
X153125Y240055D01*
X152698Y240954D01*
X152210Y241821D01*
X151664Y242652D01*
X151064Y243445D01*
X150410Y244195D01*
X149706Y244898D01*
X148957Y245552D01*
X148164Y246153D01*
X147333Y246698D01*
X146466Y247186D01*
X145567Y247613D01*
X144642Y247978D01*
X143694Y248279D01*
X142727Y248514D01*
X141747Y248683D01*
X140758Y248785D01*
X139764Y248819D01*
X138770Y248785D01*
X137780Y248683D01*
X136800Y248514D01*
X135834Y248279D01*
X134886Y247978D01*
X133960Y247613D01*
X133062Y247186D01*
X132195Y246698D01*
X131363Y246153D01*
X130571Y245552D01*
X129821Y244898D01*
X129118Y244195D01*
X128464Y243445D01*
X127863Y242652D01*
X127318Y241821D01*
X126830Y240954D01*
X126403Y240055D01*
X126038Y239130D01*
X125737Y238182D01*
X125502Y237216D01*
X125332Y236235D01*
X125231Y235246D01*
X125197Y234252D01*
X125231Y233258D01*
X125332Y232269D01*
X125502Y231288D01*
X125737Y230322D01*
X126038Y229374D01*
X126403Y228449D01*
X126830Y227550D01*
X127318Y226683D01*
X127863Y225851D01*
X128464Y225059D01*
X129118Y224309D01*
X129821Y223606D01*
X130571Y222952D01*
X131363Y222351D01*
X132195Y221806D01*
X133062Y221318D01*
X133960Y220891D01*
X134886Y220526D01*
X135834Y220225D01*
X136800Y219990D01*
X137780Y219821D01*
X138770Y219719D01*
X139764Y219685D01*
X140758Y219719D01*
X141747Y219821D01*
X142727Y219990D01*
X143694Y220225D01*
X144642Y220526D01*
X145567Y220891D01*
X146466Y221318D01*
X147333Y221806D01*
X148164Y222351D01*
X148957Y222952D01*
X149706Y223606D01*
X150410Y224309D01*
X151064Y225059D01*
X151664Y225851D01*
X152210Y226683D01*
X152698Y227550D01*
X153125Y228449D01*
X153490Y229374D01*
X153790Y230322D01*
X154026Y231288D01*
X154195Y232269D01*
X154297Y233258D01*
X154331Y234252D01*
Y17717D02*
X154297Y18711D01*
X154195Y19700D01*
X154026Y20680D01*
X153790Y21647D01*
X153490Y22595D01*
X153125Y23520D01*
X152698Y24418D01*
X152210Y25285D01*
X151664Y26117D01*
X151064Y26910D01*
X150410Y27659D01*
X149706Y28363D01*
X148957Y29016D01*
X148164Y29617D01*
X147333Y30163D01*
X146466Y30650D01*
X145567Y31078D01*
X144642Y31442D01*
X143694Y31743D01*
X142727Y31979D01*
X141747Y32148D01*
X140758Y32250D01*
X139764Y32283D01*
X138770Y32250D01*
X137780Y32148D01*
X136800Y31979D01*
X135834Y31743D01*
X134886Y31442D01*
X133960Y31078D01*
X133062Y30650D01*
X132195Y30163D01*
X131363Y29617D01*
X130571Y29016D01*
X129821Y28363D01*
X129118Y27659D01*
X128464Y26910D01*
X127863Y26117D01*
X127318Y25285D01*
X126830Y24418D01*
X126403Y23520D01*
X126038Y22595D01*
X125737Y21647D01*
X125502Y20680D01*
X125332Y19700D01*
X125231Y18711D01*
X125197Y17717D01*
X125231Y16723D01*
X125332Y15733D01*
X125502Y14753D01*
X125737Y13786D01*
X126038Y12838D01*
X126403Y11913D01*
X126830Y11015D01*
X127318Y10148D01*
X127863Y9316D01*
X128464Y8524D01*
X129118Y7774D01*
X129821Y7070D01*
X130571Y6417D01*
X131363Y5816D01*
X132195Y5270D01*
X133062Y4783D01*
X133960Y4356D01*
X134886Y3991D01*
X135834Y3690D01*
X136800Y3454D01*
X137780Y3285D01*
X138770Y3184D01*
X139764Y3150D01*
X140758Y3184D01*
X141747Y3285D01*
X142727Y3454D01*
X143694Y3690D01*
X144642Y3991D01*
X145567Y4356D01*
X146466Y4783D01*
X147333Y5270D01*
X148164Y5816D01*
X148957Y6417D01*
X149706Y7070D01*
X150410Y7774D01*
X151064Y8523D01*
X151664Y9316D01*
X152210Y10148D01*
X152698Y11015D01*
X153125Y11913D01*
X153490Y12838D01*
X153790Y13786D01*
X154026Y14753D01*
X154195Y15733D01*
X154297Y16723D01*
X154331Y17717D01*
X130315Y98484D02*
X140551D01*
X130315D02*
Y138445D01*
X140551Y98484D02*
Y138445D01*
X130315D02*
X140551D01*
X394Y168898D02*
X75197D01*
Y251575D01*
X394D02*
X75197D01*
X394Y168898D02*
Y251575D01*
Y84646D02*
X75197D01*
Y167323D01*
X394D02*
X75197D01*
X394Y84646D02*
Y167323D01*
X400Y394D02*
X75203D01*
Y83071D01*
X400D02*
X75203D01*
X400Y394D02*
Y83071D01*
X100984Y140748D02*
X106102D01*
Y150591D01*
X100984D02*
X106102D01*
X100984Y140748D02*
Y150591D01*
X106299Y139567D02*
X113386D01*
X106299D02*
Y152165D01*
X113386D01*
Y139567D02*
Y152165D01*
X94291Y125394D02*
X99410D01*
Y135236D01*
X94291D02*
X99410D01*
X94291Y125394D02*
Y135236D01*
X99606Y124016D02*
X106693D01*
X99606D02*
Y136614D01*
X106693D01*
Y124016D02*
Y136614D01*
X106693Y124016D02*
X113779D01*
X106693D02*
Y136614D01*
X113779D01*
Y124016D02*
Y136614D01*
X106890Y108858D02*
Y113976D01*
X97047D02*
X106890D01*
X97047Y108858D02*
Y113976D01*
Y108858D02*
X106890D01*
X108465Y101575D02*
Y108661D01*
X95866Y101575D02*
X108465D01*
X95866D02*
Y108661D01*
X108465D01*
X107283Y93504D02*
Y98622D01*
X97441D02*
X107283D01*
X97441Y93504D02*
Y98622D01*
Y93504D02*
X107283D01*
X96063Y86221D02*
Y93307D01*
X108661D01*
Y86221D02*
Y93307D01*
X96063Y86221D02*
X108661D01*
X96063Y79134D02*
Y86221D01*
X108661D01*
Y79134D02*
Y86221D01*
X96063Y79134D02*
X108661D01*
X111516Y79035D02*
X122343D01*
X111516D02*
Y83957D01*
X122343D01*
Y79035D02*
Y83957D01*
X136614Y79134D02*
Y86221D01*
X124016Y79134D02*
X136614D01*
X124016D02*
Y86221D01*
X136614D01*
X105512Y44488D02*
X139370D01*
Y69685D01*
X105512D02*
X139370D01*
X105512Y44488D02*
Y69685D01*
X95276Y26378D02*
Y33465D01*
X107874D01*
Y26378D02*
Y33465D01*
X95276Y26378D02*
X107874D01*
X97047Y63976D02*
X102165D01*
X97047Y54134D02*
Y63976D01*
Y54134D02*
X102165D01*
Y63976D01*
X92421Y41437D02*
Y52264D01*
X97342D01*
Y41437D02*
Y52264D01*
X92421Y41437D02*
X97342D01*
X97539D02*
Y52264D01*
X102461D01*
Y41437D02*
Y52264D01*
X97539Y41437D02*
X102461D01*
X109055Y33465D02*
X110236D01*
X109055Y27165D02*
Y33465D01*
Y27165D02*
X110236D01*
Y33465D02*
X124409D01*
X110236Y27165D02*
Y33465D01*
Y27165D02*
X124409D01*
Y33465D01*
X96653Y21063D02*
Y26181D01*
Y21063D02*
X106496D01*
Y26181D01*
X96653D02*
X106496D01*
X85827Y28346D02*
X81104D01*
X82678Y29921D01*
X81104Y31495D01*
X85827D01*
X81104Y33069D02*
Y34644D01*
Y33856D01*
X85827D01*
Y33069D01*
Y34644D01*
X81104Y37005D02*
X85827D01*
Y39366D01*
X85040Y40154D01*
X81891D01*
X81104Y39366D01*
Y37005D01*
Y41728D02*
Y43302D01*
Y42515D01*
X85827D01*
Y41728D01*
Y43302D01*
X81104Y50387D02*
Y51961D01*
Y51174D01*
X85827D01*
Y50387D01*
Y51961D01*
Y54322D02*
X81104D01*
X85827Y57471D01*
X81104D01*
X85827Y189764D02*
X81104D01*
X82678Y191338D01*
X81104Y192912D01*
X85827D01*
X81104Y194487D02*
Y196061D01*
Y195274D01*
X85827D01*
Y194487D01*
Y196061D01*
X81104Y198422D02*
X85827D01*
Y200784D01*
X85040Y201571D01*
X81891D01*
X81104Y200784D01*
Y198422D01*
Y203145D02*
Y204720D01*
Y203932D01*
X85827D01*
Y203145D01*
Y204720D01*
X81104Y214165D02*
Y212591D01*
X81891Y211804D01*
X85040D01*
X85827Y212591D01*
Y214165D01*
X85040Y214952D01*
X81891D01*
X81104Y214165D01*
Y216527D02*
X85040D01*
X85827Y217314D01*
Y218888D01*
X85040Y219675D01*
X81104D01*
Y221250D02*
Y224398D01*
Y222824D01*
X85827D01*
Y109055D02*
X81104D01*
X82678Y110629D01*
X81104Y112204D01*
X85827D01*
X81104Y113778D02*
Y115352D01*
Y114565D01*
X85827D01*
Y113778D01*
Y115352D01*
X81104Y117714D02*
X85827D01*
Y120075D01*
X85040Y120862D01*
X81891D01*
X81104Y120075D01*
Y117714D01*
Y122437D02*
Y124011D01*
Y123224D01*
X85827D01*
Y122437D01*
Y124011D01*
X81104Y131095D02*
Y134244D01*
Y132670D01*
X85827D01*
X81104Y135818D02*
X85827D01*
X83465D01*
Y138967D01*
X81104D01*
X85827D01*
Y140541D02*
X81104D01*
Y142903D01*
X81891Y143690D01*
X83465D01*
X84253Y142903D01*
Y140541D01*
Y142115D02*
X85827Y143690D01*
X81104Y145264D02*
X85040D01*
X85827Y146051D01*
Y147625D01*
X85040Y148413D01*
X81104D01*
X126378Y131299D02*
X127952D01*
X127165D01*
Y136022D01*
X126378Y135235D01*
D11*
X107087Y41339D02*
X106543Y42087D01*
X105662Y41801D01*
Y40876D01*
X106543Y40590D01*
X107087Y41339D01*
D12*
X143110Y115235D02*
Y118384D01*
X144160Y117334D01*
X145209Y118384D01*
Y115235D01*
X146259Y118384D02*
X147308D01*
X146784D01*
Y115235D01*
X146259D01*
X147308D01*
X148883Y118384D02*
Y115235D01*
X150457D01*
X150982Y115760D01*
Y117859D01*
X150457Y118384D01*
X148883D01*
X152031D02*
X153081D01*
X152556D01*
Y115235D01*
X152031D01*
X153081D01*
X144685Y113188D02*
X143635D01*
X143110Y112663D01*
Y110564D01*
X143635Y110039D01*
X144685D01*
X145209Y110564D01*
Y112663D01*
X144685Y113188D01*
X146259D02*
Y110564D01*
X146784Y110039D01*
X147833D01*
X148358Y110564D01*
Y113188D01*
X149407D02*
X151506D01*
X150457D01*
Y110039D01*
X143110Y103818D02*
Y106966D01*
X144160Y105917D01*
X145209Y106966D01*
Y103818D01*
X146259Y106966D02*
X147308D01*
X146784D01*
Y103818D01*
X146259D01*
X147308D01*
X148883Y106966D02*
Y103818D01*
X150457D01*
X150982Y104342D01*
Y106441D01*
X150457Y106966D01*
X148883D01*
X152031D02*
X153081D01*
X152556D01*
Y103818D01*
X152031D01*
X153081D01*
X143110Y101771D02*
X144160D01*
X143635D01*
Y98622D01*
X143110D01*
X144160D01*
X145734D02*
Y101771D01*
X147833Y98622D01*
Y101771D01*
X6961Y8070D02*
X5911D01*
X6436D01*
Y5446D01*
X5911Y4921D01*
X5386D01*
X4862Y5446D01*
X8010Y8070D02*
Y4921D01*
X10109D01*
X13258Y7545D02*
X12733Y8070D01*
X11683D01*
X11159Y7545D01*
Y5446D01*
X11683Y4921D01*
X12733D01*
X13258Y5446D01*
X16406Y8070D02*
X15357D01*
X15882D01*
Y5446D01*
X15357Y4921D01*
X14832D01*
X14307Y5446D01*
X17456Y8070D02*
Y4921D01*
X19555D01*
X22704Y7545D02*
X22179Y8070D01*
X21129D01*
X20605Y7545D01*
Y5446D01*
X21129Y4921D01*
X22179D01*
X22704Y5446D01*
X25852Y8070D02*
X24803D01*
X25327D01*
Y5446D01*
X24803Y4921D01*
X24278D01*
X23753Y5446D01*
X26902Y8070D02*
Y4921D01*
X29001D01*
X32149Y7545D02*
X31625Y8070D01*
X30575D01*
X30050Y7545D01*
Y5446D01*
X30575Y4921D01*
X31625D01*
X32149Y5446D01*
X35298Y8070D02*
X34248D01*
X34773D01*
Y5446D01*
X34248Y4921D01*
X33724D01*
X33199Y5446D01*
X36347Y8070D02*
Y4921D01*
X38447D01*
X41595Y7545D02*
X41070Y8070D01*
X40021D01*
X39496Y7545D01*
Y5446D01*
X40021Y4921D01*
X41070D01*
X41595Y5446D01*
X143110Y135235D02*
Y133136D01*
X144160Y132087D01*
X145209Y133136D01*
Y135235D01*
X148358Y134710D02*
X147833Y135235D01*
X146784D01*
X146259Y134710D01*
Y132611D01*
X146784Y132087D01*
X147833D01*
X148358Y132611D01*
X151506Y134710D02*
X150982Y135235D01*
X149932D01*
X149407Y134710D01*
Y132611D01*
X149932Y132087D01*
X150982D01*
X151506Y132611D01*
X145209Y125577D02*
X144685Y126101D01*
X143635D01*
X143110Y125577D01*
Y123477D01*
X143635Y122953D01*
X144685D01*
X145209Y123477D01*
Y124527D01*
X144160D01*
X146259Y122953D02*
Y126101D01*
X148358Y122953D01*
Y126101D01*
X149407D02*
Y122953D01*
X150982D01*
X151506Y123477D01*
Y125577D01*
X150982Y126101D01*
X149407D01*
X96195Y74804D02*
Y77952D01*
X97769D01*
X98294Y77428D01*
Y76378D01*
X97769Y75853D01*
X96195D01*
X97245D02*
X98294Y74804D01*
X99344Y77428D02*
X99868Y77952D01*
X100918D01*
X101443Y77428D01*
Y76903D01*
X100918Y76378D01*
X101443Y75853D01*
Y75328D01*
X100918Y74804D01*
X99868D01*
X99344Y75328D01*
Y75853D01*
X99868Y76378D01*
X99344Y76903D01*
Y77428D01*
X99868Y76378D02*
X100918D01*
X109975Y89764D02*
Y92913D01*
X111549D01*
X112074Y92388D01*
Y91339D01*
X111549Y90814D01*
X109975D01*
X111024D02*
X112074Y89764D01*
X113123Y92913D02*
X115222D01*
Y92388D01*
X113123Y90289D01*
Y89764D01*
X113255Y87664D02*
X112730Y88188D01*
X111680D01*
X111156Y87664D01*
Y85565D01*
X111680Y85040D01*
X112730D01*
X113255Y85565D01*
X114304Y87664D02*
X114829Y88188D01*
X115879D01*
X116403Y87664D01*
Y87139D01*
X115879Y86614D01*
X115354D01*
X115879D01*
X116403Y86089D01*
Y85565D01*
X115879Y85040D01*
X114829D01*
X114304Y85565D01*
X131759Y143307D02*
X130709D01*
X131234D01*
Y140683D01*
X130709Y140158D01*
X130184D01*
X129660Y140683D01*
X134907Y140158D02*
X132808D01*
X134907Y142257D01*
Y142782D01*
X134382Y143307D01*
X133333D01*
X132808Y142782D01*
X140814Y47637D02*
Y45013D01*
X141339Y44489D01*
X142389D01*
X142913Y45013D01*
Y47637D01*
X143963Y44489D02*
X145012D01*
X144488D01*
Y47637D01*
X143963Y47113D01*
X109581Y103544D02*
Y106692D01*
X111155D01*
X111680Y106168D01*
Y105118D01*
X111155Y104593D01*
X109581D01*
X110630D02*
X111680Y103544D01*
X114829Y106692D02*
X113779Y106168D01*
X112730Y105118D01*
Y104069D01*
X113254Y103544D01*
X114304D01*
X114829Y104069D01*
Y104593D01*
X114304Y105118D01*
X112730D01*
X93700Y27297D02*
X90552D01*
Y28872D01*
X91076Y29397D01*
X92126D01*
X92651Y28872D01*
Y27297D01*
Y28347D02*
X93700Y29397D01*
X90552Y32545D02*
Y30446D01*
X92126D01*
X91601Y31496D01*
Y32020D01*
X92126Y32545D01*
X93176D01*
X93700Y32020D01*
Y30971D01*
X93176Y30446D01*
X107612Y119685D02*
Y122834D01*
X109187D01*
X109712Y122309D01*
Y121260D01*
X109187Y120735D01*
X107612D01*
X108662D02*
X109712Y119685D01*
X112335D02*
Y122834D01*
X110761Y121260D01*
X112860D01*
X123754Y87796D02*
Y90944D01*
X125328D01*
X125853Y90420D01*
Y89370D01*
X125328Y88845D01*
X123754D01*
X124804D02*
X125853Y87796D01*
X126903Y90420D02*
X127427Y90944D01*
X128477D01*
X129002Y90420D01*
Y89895D01*
X128477Y89370D01*
X127952D01*
X128477D01*
X129002Y88845D01*
Y88321D01*
X128477Y87796D01*
X127427D01*
X126903Y88321D01*
X107219Y153544D02*
Y156692D01*
X108793D01*
X109318Y156168D01*
Y155118D01*
X108793Y154593D01*
X107219D01*
X108268D02*
X109318Y153544D01*
X112466D02*
X110367D01*
X112466Y155643D01*
Y156168D01*
X111942Y156692D01*
X110892D01*
X110367Y156168D01*
X101050Y119685D02*
Y122834D01*
X102625D01*
X103150Y122309D01*
Y121260D01*
X102625Y120735D01*
X101050D01*
X102100D02*
X103150Y119685D01*
X104199D02*
X105249D01*
X104724D01*
Y122834D01*
X104199Y122309D01*
X79396Y87401D02*
X78347D01*
X78872D01*
Y84777D01*
X78347Y84253D01*
X77822D01*
X77297Y84777D01*
X82020Y84253D02*
Y87401D01*
X80446Y85827D01*
X82545D01*
X79003Y5118D02*
X77953D01*
X78478D01*
Y2494D01*
X77953Y1969D01*
X77429D01*
X76904Y2494D01*
X80052Y4593D02*
X80577Y5118D01*
X81627D01*
X82151Y4593D01*
Y4068D01*
X81627Y3543D01*
X81102D01*
X81627D01*
X82151Y3019D01*
Y2494D01*
X81627Y1969D01*
X80577D01*
X80052Y2494D01*
X79528Y172047D02*
X78478D01*
X79003D01*
Y169423D01*
X78478Y168898D01*
X77953D01*
X77429Y169423D01*
X80577Y168898D02*
X81627D01*
X81102D01*
Y172047D01*
X80577Y171522D01*
X97507Y68897D02*
X95408D01*
Y67323D01*
X96458D01*
X95408D01*
Y65749D01*
X98557Y68897D02*
Y65749D01*
X100131D01*
X100656Y66273D01*
Y66798D01*
X100131Y67323D01*
X98557D01*
X100131D01*
X100656Y67848D01*
Y68372D01*
X100131Y68897D01*
X98557D01*
X103804D02*
X102755Y68372D01*
X101705Y67323D01*
Y66273D01*
X102230Y65749D01*
X103280D01*
X103804Y66273D01*
Y66798D01*
X103280Y67323D01*
X101705D01*
X110499Y113385D02*
X108400D01*
Y111811D01*
X109450D01*
X108400D01*
Y110237D01*
X111549Y113385D02*
Y110237D01*
X113123D01*
X113648Y110761D01*
Y111286D01*
X113123Y111811D01*
X111549D01*
X113123D01*
X113648Y112336D01*
Y112861D01*
X113123Y113385D01*
X111549D01*
X116797D02*
X114698D01*
Y111811D01*
X115747Y112336D01*
X116272D01*
X116797Y111811D01*
Y110761D01*
X116272Y110237D01*
X115222D01*
X114698Y110761D01*
X99476Y19684D02*
X97377D01*
Y18110D01*
X98426D01*
X97377D01*
Y16536D01*
X100525Y19684D02*
Y16536D01*
X102100D01*
X102624Y17061D01*
Y17585D01*
X102100Y18110D01*
X100525D01*
X102100D01*
X102624Y18635D01*
Y19160D01*
X102100Y19684D01*
X100525D01*
X105248Y16536D02*
Y19684D01*
X103674Y18110D01*
X105773D01*
X110499Y98031D02*
X108400D01*
Y96457D01*
X109450D01*
X108400D01*
Y94882D01*
X111549Y98031D02*
Y94882D01*
X113123D01*
X113648Y95407D01*
Y95932D01*
X113123Y96457D01*
X111549D01*
X113123D01*
X113648Y96982D01*
Y97506D01*
X113123Y98031D01*
X111549D01*
X114698Y97506D02*
X115222Y98031D01*
X116272D01*
X116797Y97506D01*
Y96982D01*
X116272Y96457D01*
X115747D01*
X116272D01*
X116797Y95932D01*
Y95407D01*
X116272Y94882D01*
X115222D01*
X114698Y95407D01*
X96457Y143570D02*
Y141471D01*
X98032D01*
Y142521D01*
Y141471D01*
X99606D01*
X96457Y144620D02*
X99606D01*
Y146194D01*
X99081Y146719D01*
X98556D01*
X98032Y146194D01*
Y144620D01*
Y146194D01*
X97507Y146719D01*
X96982D01*
X96457Y146194D01*
Y144620D01*
X99606Y149867D02*
Y147768D01*
X97507Y149867D01*
X96982D01*
X96457Y149343D01*
Y148293D01*
X96982Y147768D01*
X89764Y128347D02*
Y126248D01*
X91339D01*
Y127297D01*
Y126248D01*
X92913D01*
X89764Y129396D02*
X92913D01*
Y130971D01*
X92388Y131496D01*
X91863D01*
X91339Y130971D01*
Y129396D01*
Y130971D01*
X90814Y131496D01*
X90289D01*
X89764Y130971D01*
Y129396D01*
X92913Y132545D02*
Y133595D01*
Y133070D01*
X89764D01*
X90289Y132545D01*
X114830Y25590D02*
Y22442D01*
X116404D01*
X116929Y22966D01*
Y25065D01*
X116404Y25590D01*
X114830D01*
X117979Y22442D02*
X119028D01*
X118503D01*
Y25590D01*
X117979Y25065D01*
X90026Y39239D02*
X89502Y39763D01*
X88452D01*
X87927Y39239D01*
Y37139D01*
X88452Y36615D01*
X89502D01*
X90026Y37139D01*
X93175Y36615D02*
X91076D01*
X93175Y38714D01*
Y39239D01*
X92650Y39763D01*
X91601D01*
X91076Y39239D01*
X102756D02*
X102231Y39763D01*
X101182D01*
X100657Y39239D01*
Y37139D01*
X101182Y36615D01*
X102231D01*
X102756Y37139D01*
X103805Y36615D02*
X104855D01*
X104330D01*
Y39763D01*
X103805Y39239D01*
M02*
