G04*
G04 #@! TF.GenerationSoftware,Altium Limited,Altium Designer,21.4.1 (30)*
G04*
G04 Layer_Color=8388736*
%FSLAX25Y25*%
%MOIN*%
G70*
G04*
G04 #@! TF.SameCoordinates,A48B96B0-5CB6-46A1-959F-C16CD1BF0AD3*
G04*
G04*
G04 #@! TF.FilePolarity,Negative*
G04*
G01*
G75*
%ADD13R,0.03950X0.03162*%
%ADD14R,0.05918X0.03556*%
%ADD15R,0.03162X0.03950*%
%ADD16R,0.03556X0.05918*%
%ADD17R,0.03950X0.03950*%
%ADD18R,0.07808X0.06784*%
%ADD19R,0.03950X0.03950*%
%ADD20R,0.03950X0.04343*%
%ADD21C,0.13398*%
%ADD22R,0.07099X0.07099*%
%ADD23C,0.07099*%
%ADD24C,0.08674*%
%ADD25C,0.05800*%
D13*
X103543Y142913D02*
D03*
Y148425D02*
D03*
X96850Y127559D02*
D03*
Y133071D02*
D03*
X99606Y61811D02*
D03*
Y56299D02*
D03*
D14*
X109843Y149606D02*
D03*
Y142126D02*
D03*
X103150Y134055D02*
D03*
Y126575D02*
D03*
X110236Y134055D02*
D03*
Y126575D02*
D03*
D15*
X104724Y111417D02*
D03*
X99213D02*
D03*
X105118Y96063D02*
D03*
X99606D02*
D03*
X98819Y23622D02*
D03*
X104331D02*
D03*
D16*
X98425Y105118D02*
D03*
X105905D02*
D03*
X106102Y89764D02*
D03*
X98622D02*
D03*
X106102Y82677D02*
D03*
X98622D02*
D03*
X126575D02*
D03*
X134055D02*
D03*
X105315Y29921D02*
D03*
X97835D02*
D03*
D17*
X113976Y81496D02*
D03*
X119882D02*
D03*
D18*
X132441Y74823D02*
D03*
X122441D02*
D03*
X112441D02*
D03*
X132441Y39350D02*
D03*
X122441D02*
D03*
X112441D02*
D03*
D19*
X94882Y49803D02*
D03*
Y43898D02*
D03*
X100000Y49803D02*
D03*
Y43898D02*
D03*
D20*
X121850Y30315D02*
D03*
X112795D02*
D03*
D21*
X139764Y234252D02*
D03*
Y17717D02*
D03*
D22*
X135433Y133465D02*
D03*
D23*
Y123465D02*
D03*
Y113465D02*
D03*
Y103465D02*
D03*
D24*
X12205Y229921D02*
D03*
Y190551D02*
D03*
X59449Y229921D02*
D03*
Y190551D02*
D03*
X49606Y239764D02*
D03*
Y210236D02*
D03*
Y180709D02*
D03*
X12205Y145669D02*
D03*
Y106299D02*
D03*
X59449Y145669D02*
D03*
Y106299D02*
D03*
X49606Y155512D02*
D03*
Y125984D02*
D03*
Y96457D02*
D03*
X12211Y61417D02*
D03*
Y22047D02*
D03*
X59455Y61417D02*
D03*
Y22047D02*
D03*
X49613Y71260D02*
D03*
Y41732D02*
D03*
Y12205D02*
D03*
D25*
X122441Y66535D02*
D03*
X97244Y37795D02*
D03*
M02*
