G04*
G04 #@! TF.GenerationSoftware,Altium Limited,Altium Designer,21.4.1 (30)*
G04*
G04 Layer_Physical_Order=2*
G04 Layer_Color=16711680*
%FSLAX25Y25*%
%MOIN*%
G70*
G04*
G04 #@! TF.SameCoordinates,A48B96B0-5CB6-46A1-959F-C16CD1BF0AD3*
G04*
G04*
G04 #@! TF.FilePolarity,Positive*
G04*
G01*
G75*
%ADD35C,0.12598*%
%ADD36R,0.06299X0.06299*%
%ADD37C,0.06299*%
%ADD38C,0.07874*%
%ADD39C,0.05000*%
G36*
X155512Y1969D02*
X1969D01*
Y250000D01*
X155512D01*
Y1969D01*
D02*
G37*
%LPC*%
G36*
X50256Y244701D02*
X48956D01*
X47701Y244364D01*
X46575Y243714D01*
X45656Y242795D01*
X45006Y241669D01*
X44669Y240414D01*
Y239114D01*
X45006Y237858D01*
X45656Y236732D01*
X46575Y235813D01*
X47701Y235163D01*
X48956Y234827D01*
X50256D01*
X51512Y235163D01*
X52638Y235813D01*
X53557Y236732D01*
X54207Y237858D01*
X54543Y239114D01*
Y240414D01*
X54207Y241669D01*
X53557Y242795D01*
X52638Y243714D01*
X51512Y244364D01*
X50256Y244701D01*
D02*
G37*
G36*
X12855Y234858D02*
X12705D01*
Y230421D01*
X17142D01*
Y230571D01*
X16805Y231827D01*
X16155Y232953D01*
X15236Y233872D01*
X14110Y234522D01*
X12855Y234858D01*
D02*
G37*
G36*
X11705D02*
X11555D01*
X10299Y234522D01*
X9173Y233872D01*
X8254Y232953D01*
X7604Y231827D01*
X7268Y230571D01*
Y230421D01*
X11705D01*
Y234858D01*
D02*
G37*
G36*
X140483Y241551D02*
X139045D01*
X137635Y241271D01*
X136306Y240720D01*
X135111Y239922D01*
X134094Y238905D01*
X133295Y237709D01*
X132745Y236381D01*
X132465Y234971D01*
Y233533D01*
X132745Y232123D01*
X133295Y230795D01*
X134094Y229599D01*
X135111Y228582D01*
X136306Y227783D01*
X137635Y227233D01*
X139045Y226953D01*
X140483D01*
X141893Y227233D01*
X143221Y227783D01*
X144417Y228582D01*
X145433Y229599D01*
X146232Y230795D01*
X146783Y232123D01*
X147063Y233533D01*
Y234971D01*
X146783Y236381D01*
X146232Y237709D01*
X145433Y238905D01*
X144417Y239922D01*
X143221Y240720D01*
X141893Y241271D01*
X140483Y241551D01*
D02*
G37*
G36*
X60099Y234858D02*
X58799D01*
X57543Y234522D01*
X56417Y233872D01*
X55498Y232953D01*
X54848Y231827D01*
X54512Y230571D01*
Y229271D01*
X54848Y228016D01*
X55498Y226890D01*
X56417Y225971D01*
X57543Y225321D01*
X58799Y224984D01*
X60099D01*
X61354Y225321D01*
X62480Y225971D01*
X63399Y226890D01*
X64049Y228016D01*
X64386Y229271D01*
Y230571D01*
X64049Y231827D01*
X63399Y232953D01*
X62480Y233872D01*
X61354Y234522D01*
X60099Y234858D01*
D02*
G37*
G36*
X17142Y229421D02*
X12705D01*
Y224984D01*
X12855D01*
X14110Y225321D01*
X15236Y225971D01*
X16155Y226890D01*
X16805Y228016D01*
X17142Y229271D01*
Y229421D01*
D02*
G37*
G36*
X11705D02*
X7268D01*
Y229271D01*
X7604Y228016D01*
X8254Y226890D01*
X9173Y225971D01*
X10299Y225321D01*
X11555Y224984D01*
X11705D01*
Y229421D01*
D02*
G37*
G36*
X50256Y215173D02*
X50106D01*
Y210736D01*
X54543D01*
Y210886D01*
X54207Y212142D01*
X53557Y213268D01*
X52638Y214187D01*
X51512Y214837D01*
X50256Y215173D01*
D02*
G37*
G36*
X49106D02*
X48956D01*
X47701Y214837D01*
X46575Y214187D01*
X45656Y213268D01*
X45006Y212142D01*
X44669Y210886D01*
Y210736D01*
X49106D01*
Y215173D01*
D02*
G37*
G36*
X54543Y209736D02*
X50106D01*
Y205299D01*
X50256D01*
X51512Y205636D01*
X52638Y206286D01*
X53557Y207205D01*
X54207Y208331D01*
X54543Y209586D01*
Y209736D01*
D02*
G37*
G36*
X49106D02*
X44669D01*
Y209586D01*
X45006Y208331D01*
X45656Y207205D01*
X46575Y206286D01*
X47701Y205636D01*
X48956Y205299D01*
X49106D01*
Y209736D01*
D02*
G37*
G36*
X12855Y195488D02*
X12705D01*
Y191051D01*
X17142D01*
Y191201D01*
X16805Y192457D01*
X16155Y193583D01*
X15236Y194502D01*
X14110Y195152D01*
X12855Y195488D01*
D02*
G37*
G36*
X11705D02*
X11555D01*
X10299Y195152D01*
X9173Y194502D01*
X8254Y193583D01*
X7604Y192457D01*
X7268Y191201D01*
Y191051D01*
X11705D01*
Y195488D01*
D02*
G37*
G36*
X60099D02*
X58799D01*
X57543Y195152D01*
X56417Y194502D01*
X55498Y193583D01*
X54848Y192457D01*
X54512Y191201D01*
Y189901D01*
X54848Y188646D01*
X55498Y187520D01*
X56417Y186601D01*
X57543Y185951D01*
X58799Y185614D01*
X60099D01*
X61354Y185951D01*
X62480Y186601D01*
X63399Y187520D01*
X64049Y188646D01*
X64386Y189901D01*
Y191201D01*
X64049Y192457D01*
X63399Y193583D01*
X62480Y194502D01*
X61354Y195152D01*
X60099Y195488D01*
D02*
G37*
G36*
X17142Y190051D02*
X12705D01*
Y185614D01*
X12855D01*
X14110Y185951D01*
X15236Y186601D01*
X16155Y187520D01*
X16805Y188646D01*
X17142Y189901D01*
Y190051D01*
D02*
G37*
G36*
X11705D02*
X7268D01*
Y189901D01*
X7604Y188646D01*
X8254Y187520D01*
X9173Y186601D01*
X10299Y185951D01*
X11555Y185614D01*
X11705D01*
Y190051D01*
D02*
G37*
G36*
X50256Y185646D02*
X48956D01*
X47701Y185309D01*
X46575Y184659D01*
X45656Y183740D01*
X45006Y182614D01*
X44669Y181359D01*
Y180059D01*
X45006Y178803D01*
X45656Y177677D01*
X46575Y176758D01*
X47701Y176108D01*
X48956Y175772D01*
X50256D01*
X51512Y176108D01*
X52638Y176758D01*
X53557Y177677D01*
X54207Y178803D01*
X54543Y180059D01*
Y181359D01*
X54207Y182614D01*
X53557Y183740D01*
X52638Y184659D01*
X51512Y185309D01*
X50256Y185646D01*
D02*
G37*
G36*
Y160449D02*
X48956D01*
X47701Y160112D01*
X46575Y159462D01*
X45656Y158543D01*
X45006Y157417D01*
X44669Y156162D01*
Y154862D01*
X45006Y153606D01*
X45656Y152480D01*
X46575Y151561D01*
X47701Y150911D01*
X48956Y150575D01*
X50256D01*
X51512Y150911D01*
X52638Y151561D01*
X53557Y152480D01*
X54207Y153606D01*
X54543Y154862D01*
Y156162D01*
X54207Y157417D01*
X53557Y158543D01*
X52638Y159462D01*
X51512Y160112D01*
X50256Y160449D01*
D02*
G37*
G36*
X12855Y150606D02*
X12705D01*
Y146169D01*
X17142D01*
Y146319D01*
X16805Y147575D01*
X16155Y148701D01*
X15236Y149620D01*
X14110Y150270D01*
X12855Y150606D01*
D02*
G37*
G36*
X11705D02*
X11555D01*
X10299Y150270D01*
X9173Y149620D01*
X8254Y148701D01*
X7604Y147575D01*
X7268Y146319D01*
Y146169D01*
X11705D01*
Y150606D01*
D02*
G37*
G36*
X60099D02*
X58799D01*
X57543Y150270D01*
X56417Y149620D01*
X55498Y148701D01*
X54848Y147575D01*
X54512Y146319D01*
Y145019D01*
X54848Y143764D01*
X55498Y142638D01*
X56417Y141719D01*
X57543Y141069D01*
X58799Y140732D01*
X60099D01*
X61354Y141069D01*
X62480Y141719D01*
X63399Y142638D01*
X64049Y143764D01*
X64386Y145019D01*
Y146319D01*
X64049Y147575D01*
X63399Y148701D01*
X62480Y149620D01*
X61354Y150270D01*
X60099Y150606D01*
D02*
G37*
G36*
X17142Y145169D02*
X12705D01*
Y140732D01*
X12855D01*
X14110Y141069D01*
X15236Y141719D01*
X16155Y142638D01*
X16805Y143764D01*
X17142Y145019D01*
Y145169D01*
D02*
G37*
G36*
X11705D02*
X7268D01*
Y145019D01*
X7604Y143764D01*
X8254Y142638D01*
X9173Y141719D01*
X10299Y141069D01*
X11555Y140732D01*
X11705D01*
Y145169D01*
D02*
G37*
G36*
X139583Y137614D02*
X131283D01*
Y129315D01*
X139583D01*
Y137614D01*
D02*
G37*
G36*
X50256Y130921D02*
X50106D01*
Y126484D01*
X54543D01*
Y126634D01*
X54207Y127890D01*
X53557Y129016D01*
X52638Y129935D01*
X51512Y130585D01*
X50256Y130921D01*
D02*
G37*
G36*
X49106D02*
X48956D01*
X47701Y130585D01*
X46575Y129935D01*
X45656Y129016D01*
X45006Y127890D01*
X44669Y126634D01*
Y126484D01*
X49106D01*
Y130921D01*
D02*
G37*
G36*
X135979Y127614D02*
X135933D01*
Y123965D01*
X139583D01*
Y124011D01*
X139300Y125066D01*
X138754Y126013D01*
X137981Y126785D01*
X137035Y127331D01*
X135979Y127614D01*
D02*
G37*
G36*
X134933D02*
X134887D01*
X133831Y127331D01*
X132885Y126785D01*
X132113Y126013D01*
X131566Y125066D01*
X131283Y124011D01*
Y123965D01*
X134933D01*
Y127614D01*
D02*
G37*
G36*
X54543Y125484D02*
X50106D01*
Y121047D01*
X50256D01*
X51512Y121384D01*
X52638Y122034D01*
X53557Y122953D01*
X54207Y124079D01*
X54543Y125334D01*
Y125484D01*
D02*
G37*
G36*
X49106D02*
X44669D01*
Y125334D01*
X45006Y124079D01*
X45656Y122953D01*
X46575Y122034D01*
X47701Y121384D01*
X48956Y121047D01*
X49106D01*
Y125484D01*
D02*
G37*
G36*
X139583Y122965D02*
X135933D01*
Y119315D01*
X135979D01*
X137035Y119598D01*
X137981Y120144D01*
X138754Y120917D01*
X139300Y121863D01*
X139583Y122918D01*
Y122965D01*
D02*
G37*
G36*
X134933D02*
X131283D01*
Y122918D01*
X131566Y121863D01*
X132113Y120917D01*
X132885Y120144D01*
X133831Y119598D01*
X134887Y119315D01*
X134933D01*
Y122965D01*
D02*
G37*
G36*
X135979Y117614D02*
X134887D01*
X133831Y117331D01*
X132885Y116785D01*
X132113Y116013D01*
X131566Y115066D01*
X131283Y114011D01*
Y112918D01*
X131566Y111863D01*
X132113Y110917D01*
X132885Y110144D01*
X133831Y109598D01*
X134887Y109315D01*
X135979D01*
X137035Y109598D01*
X137981Y110144D01*
X138754Y110917D01*
X139300Y111863D01*
X139583Y112918D01*
Y114011D01*
X139300Y115066D01*
X138754Y116013D01*
X137981Y116785D01*
X137035Y117331D01*
X135979Y117614D01*
D02*
G37*
G36*
X12855Y111236D02*
X12705D01*
Y106799D01*
X17142D01*
Y106949D01*
X16805Y108205D01*
X16155Y109331D01*
X15236Y110250D01*
X14110Y110900D01*
X12855Y111236D01*
D02*
G37*
G36*
X11705D02*
X11555D01*
X10299Y110900D01*
X9173Y110250D01*
X8254Y109331D01*
X7604Y108205D01*
X7268Y106949D01*
Y106799D01*
X11705D01*
Y111236D01*
D02*
G37*
G36*
X60099D02*
X58799D01*
X57543Y110900D01*
X56417Y110250D01*
X55498Y109331D01*
X54848Y108205D01*
X54512Y106949D01*
Y105649D01*
X54848Y104394D01*
X55498Y103268D01*
X56417Y102349D01*
X57543Y101699D01*
X58799Y101362D01*
X60099D01*
X61354Y101699D01*
X62480Y102349D01*
X63399Y103268D01*
X64049Y104394D01*
X64386Y105649D01*
Y106949D01*
X64049Y108205D01*
X63399Y109331D01*
X62480Y110250D01*
X61354Y110900D01*
X60099Y111236D01*
D02*
G37*
G36*
X17142Y105799D02*
X12705D01*
Y101362D01*
X12855D01*
X14110Y101699D01*
X15236Y102349D01*
X16155Y103268D01*
X16805Y104394D01*
X17142Y105649D01*
Y105799D01*
D02*
G37*
G36*
X11705D02*
X7268D01*
Y105649D01*
X7604Y104394D01*
X8254Y103268D01*
X9173Y102349D01*
X10299Y101699D01*
X11555Y101362D01*
X11705D01*
Y105799D01*
D02*
G37*
G36*
X135979Y107614D02*
X134887D01*
X133831Y107331D01*
X132885Y106785D01*
X132113Y106012D01*
X131566Y105066D01*
X131283Y104011D01*
Y102918D01*
X131566Y101863D01*
X132113Y100917D01*
X132885Y100144D01*
X133831Y99598D01*
X134887Y99315D01*
X135979D01*
X137035Y99598D01*
X137981Y100144D01*
X138754Y100917D01*
X139300Y101863D01*
X139583Y102918D01*
Y104011D01*
X139300Y105066D01*
X138754Y106012D01*
X137981Y106785D01*
X137035Y107331D01*
X135979Y107614D01*
D02*
G37*
G36*
X50256Y101394D02*
X48956D01*
X47701Y101057D01*
X46575Y100407D01*
X45656Y99488D01*
X45006Y98362D01*
X44669Y97107D01*
Y95807D01*
X45006Y94551D01*
X45656Y93425D01*
X46575Y92506D01*
X47701Y91856D01*
X48956Y91520D01*
X50256D01*
X51512Y91856D01*
X52638Y92506D01*
X53557Y93425D01*
X54207Y94551D01*
X54543Y95807D01*
Y97107D01*
X54207Y98362D01*
X53557Y99488D01*
X52638Y100407D01*
X51512Y101057D01*
X50256Y101394D01*
D02*
G37*
G36*
X122941Y70025D02*
Y67035D01*
X125930D01*
X125702Y67886D01*
X125242Y68685D01*
X124590Y69336D01*
X123792Y69797D01*
X122941Y70025D01*
D02*
G37*
G36*
X121941D02*
X121090Y69797D01*
X120292Y69336D01*
X119640Y68685D01*
X119179Y67886D01*
X118951Y67035D01*
X121941D01*
Y70025D01*
D02*
G37*
G36*
X50263Y76197D02*
X48963D01*
X47707Y75860D01*
X46581Y75210D01*
X45662Y74291D01*
X45012Y73165D01*
X44676Y71910D01*
Y70610D01*
X45012Y69354D01*
X45662Y68228D01*
X46581Y67309D01*
X47707Y66659D01*
X48963Y66323D01*
X50263D01*
X51518Y66659D01*
X52644Y67309D01*
X53563Y68228D01*
X54213Y69354D01*
X54550Y70610D01*
Y71910D01*
X54213Y73165D01*
X53563Y74291D01*
X52644Y75210D01*
X51518Y75860D01*
X50263Y76197D01*
D02*
G37*
G36*
X125930Y66035D02*
X122941D01*
Y63046D01*
X123792Y63274D01*
X124590Y63735D01*
X125242Y64386D01*
X125702Y65184D01*
X125930Y66035D01*
D02*
G37*
G36*
X121941D02*
X118951D01*
X119179Y65184D01*
X119640Y64386D01*
X120292Y63735D01*
X121090Y63274D01*
X121941Y63046D01*
Y66035D01*
D02*
G37*
G36*
X60105Y66354D02*
X58805D01*
X57550Y66018D01*
X56424Y65368D01*
X55505Y64449D01*
X54855Y63323D01*
X54518Y62067D01*
Y60767D01*
X54855Y59512D01*
X55505Y58386D01*
X56424Y57467D01*
X57550Y56817D01*
X58805Y56480D01*
X60105D01*
X61361Y56817D01*
X62486Y57467D01*
X63406Y58386D01*
X64056Y59512D01*
X64392Y60767D01*
Y62067D01*
X64056Y63323D01*
X63406Y64449D01*
X62486Y65368D01*
X61361Y66018D01*
X60105Y66354D01*
D02*
G37*
G36*
X12861D02*
X11561D01*
X10305Y66018D01*
X9180Y65368D01*
X8260Y64449D01*
X7610Y63323D01*
X7274Y62067D01*
Y60767D01*
X7610Y59512D01*
X8260Y58386D01*
X9180Y57467D01*
X10305Y56817D01*
X11561Y56480D01*
X12861D01*
X14117Y56817D01*
X15242Y57467D01*
X16162Y58386D01*
X16812Y59512D01*
X17148Y60767D01*
Y62067D01*
X16812Y63323D01*
X16162Y64449D01*
X15242Y65368D01*
X14117Y66018D01*
X12861Y66354D01*
D02*
G37*
G36*
X97744Y41285D02*
Y38295D01*
X100734D01*
X100506Y39146D01*
X100045Y39944D01*
X99393Y40596D01*
X98595Y41057D01*
X97744Y41285D01*
D02*
G37*
G36*
X96744D02*
X95893Y41057D01*
X95095Y40596D01*
X94443Y39944D01*
X93983Y39146D01*
X93755Y38295D01*
X96744D01*
Y41285D01*
D02*
G37*
G36*
X50263Y46669D02*
X48963D01*
X47707Y46333D01*
X46581Y45683D01*
X45662Y44764D01*
X45012Y43638D01*
X44676Y42382D01*
Y41082D01*
X45012Y39827D01*
X45662Y38701D01*
X46581Y37782D01*
X47707Y37132D01*
X48963Y36795D01*
X50263D01*
X51518Y37132D01*
X52644Y37782D01*
X53563Y38701D01*
X54213Y39827D01*
X54550Y41082D01*
Y42382D01*
X54213Y43638D01*
X53563Y44764D01*
X52644Y45683D01*
X51518Y46333D01*
X50263Y46669D01*
D02*
G37*
G36*
X100734Y37295D02*
X97744D01*
Y34306D01*
X98595Y34534D01*
X99393Y34995D01*
X100045Y35646D01*
X100506Y36444D01*
X100734Y37295D01*
D02*
G37*
G36*
X96744D02*
X93755D01*
X93983Y36444D01*
X94443Y35646D01*
X95095Y34995D01*
X95893Y34534D01*
X96744Y34306D01*
Y37295D01*
D02*
G37*
G36*
X60105Y26984D02*
X58805D01*
X57550Y26648D01*
X56424Y25998D01*
X55505Y25079D01*
X54855Y23953D01*
X54518Y22697D01*
Y21397D01*
X54855Y20142D01*
X55505Y19016D01*
X56424Y18097D01*
X57550Y17447D01*
X58805Y17110D01*
X60105D01*
X61361Y17447D01*
X62486Y18097D01*
X63406Y19016D01*
X64056Y20142D01*
X64392Y21397D01*
Y22697D01*
X64056Y23953D01*
X63406Y25079D01*
X62486Y25998D01*
X61361Y26648D01*
X60105Y26984D01*
D02*
G37*
G36*
X12861D02*
X11561D01*
X10305Y26648D01*
X9180Y25998D01*
X8260Y25079D01*
X7610Y23953D01*
X7274Y22697D01*
Y21397D01*
X7610Y20142D01*
X8260Y19016D01*
X9180Y18097D01*
X10305Y17447D01*
X11561Y17110D01*
X12861D01*
X14117Y17447D01*
X15242Y18097D01*
X16162Y19016D01*
X16812Y20142D01*
X17148Y21397D01*
Y22697D01*
X16812Y23953D01*
X16162Y25079D01*
X15242Y25998D01*
X14117Y26648D01*
X12861Y26984D01*
D02*
G37*
G36*
X140483Y25016D02*
X139045D01*
X137635Y24735D01*
X136306Y24185D01*
X135111Y23386D01*
X134094Y22369D01*
X133295Y21174D01*
X132745Y19846D01*
X132465Y18436D01*
Y16998D01*
X132745Y15587D01*
X133295Y14259D01*
X134094Y13064D01*
X135111Y12047D01*
X136306Y11248D01*
X137635Y10698D01*
X139045Y10417D01*
X140483D01*
X141893Y10698D01*
X143221Y11248D01*
X144417Y12047D01*
X145433Y13064D01*
X146232Y14259D01*
X146783Y15587D01*
X147063Y16998D01*
Y18436D01*
X146783Y19846D01*
X146232Y21174D01*
X145433Y22369D01*
X144417Y23386D01*
X143221Y24185D01*
X141893Y24735D01*
X140483Y25016D01*
D02*
G37*
G36*
X50263Y17142D02*
X48963D01*
X47707Y16805D01*
X46581Y16155D01*
X45662Y15236D01*
X45012Y14110D01*
X44676Y12855D01*
Y11555D01*
X45012Y10299D01*
X45662Y9173D01*
X46581Y8254D01*
X47707Y7604D01*
X48963Y7268D01*
X50263D01*
X51518Y7604D01*
X52644Y8254D01*
X53563Y9173D01*
X54213Y10299D01*
X54550Y11555D01*
Y12855D01*
X54213Y14110D01*
X53563Y15236D01*
X52644Y16155D01*
X51518Y16805D01*
X50263Y17142D01*
D02*
G37*
%LPD*%
D35*
X139764Y234252D02*
D03*
Y17717D02*
D03*
D36*
X135433Y133465D02*
D03*
D37*
Y123465D02*
D03*
Y113465D02*
D03*
Y103465D02*
D03*
D38*
X12205Y229921D02*
D03*
Y190551D02*
D03*
X59449Y229921D02*
D03*
Y190551D02*
D03*
X49606Y239764D02*
D03*
Y210236D02*
D03*
Y180709D02*
D03*
X12205Y145669D02*
D03*
Y106299D02*
D03*
X59449Y145669D02*
D03*
Y106299D02*
D03*
X49606Y155512D02*
D03*
Y125984D02*
D03*
Y96457D02*
D03*
X12211Y61417D02*
D03*
Y22047D02*
D03*
X59455Y61417D02*
D03*
Y22047D02*
D03*
X49613Y71260D02*
D03*
Y41732D02*
D03*
Y12205D02*
D03*
D39*
X122441Y66535D02*
D03*
X97244Y37795D02*
D03*
M02*
